<mxfile host="65bd71144e" scale="1" border="10">
    <diagram id="-rriOPSDnHkLpZKLwRpb" name="Page-1">
        <mxGraphModel dx="2927" dy="1356" grid="1" gridSize="10" guides="1" tooltips="1" connect="1" arrows="1" fold="1" page="1" pageScale="1" pageWidth="850" pageHeight="1100" background="#FFFFFF" math="0" shadow="0">
            <root>
                <mxCell id="0"/>
                <mxCell id="1" parent="0"/>
                <mxCell id="438" value="" style="endArrow=oval;html=1;fillStyle=auto;strokeWidth=1;startSize=6;endSize=6;fillColor=#000000;startArrow=none;startFill=0;endFill=0;shadow=1;strokeColor=#FF0000;" parent="1" source="442" edge="1">
                    <mxGeometry width="50" height="50" relative="1" as="geometry">
                        <mxPoint x="-2376.87" y="-1244.0333333333335" as="sourcePoint"/>
                        <mxPoint x="-2370.93" y="-950.69" as="targetPoint"/>
                    </mxGeometry>
                </mxCell>
                <mxCell id="439" value="&lt;font color=&quot;#ff0000&quot;&gt;data&lt;br&gt;inizio&lt;/font&gt;" style="edgeLabel;html=1;align=center;verticalAlign=middle;resizable=0;points=[];strokeColor=#FF0000;" parent="438" vertex="1" connectable="0">
                    <mxGeometry x="0.4791" y="1" relative="1" as="geometry">
                        <mxPoint x="-3" y="-28" as="offset"/>
                    </mxGeometry>
                </mxCell>
                <mxCell id="442" value="&lt;font color=&quot;#ff0000&quot;&gt;LIVE&lt;/font&gt;" style="whiteSpace=wrap;html=1;strokeColor=#FF0000;" parent="1" vertex="1">
                    <mxGeometry x="-2391.4700000000003" y="-919.9499999999999" width="80" height="40" as="geometry"/>
                </mxCell>
                <mxCell id="455" value="" style="endArrow=oval;html=1;fillStyle=auto;strokeWidth=1;startSize=6;endSize=6;fillColor=#000000;startArrow=none;startFill=0;endFill=0;" parent="1" source="442" edge="1">
                    <mxGeometry width="50" height="50" relative="1" as="geometry">
                        <mxPoint x="-2349.1404769412693" y="-909.9499999999999" as="sourcePoint"/>
                        <mxPoint x="-2390.9300000000003" y="-940.69" as="targetPoint"/>
                    </mxGeometry>
                </mxCell>
                <mxCell id="456" value="data&lt;br&gt;fine" style="edgeLabel;html=1;align=center;verticalAlign=middle;resizable=0;points=[];" parent="455" vertex="1" connectable="0">
                    <mxGeometry x="0.4791" y="1" relative="1" as="geometry">
                        <mxPoint x="-25" y="-6" as="offset"/>
                    </mxGeometry>
                </mxCell>
                <mxCell id="490" value="" style="endArrow=none;html=1;fontSize=10;strokeColor=#FF0000;" parent="1" edge="1">
                    <mxGeometry width="50" height="50" relative="1" as="geometry">
                        <mxPoint x="-2401.86" y="-860.04" as="sourcePoint"/>
                        <mxPoint x="-2382.86" y="-880.04" as="targetPoint"/>
                    </mxGeometry>
                </mxCell>
                <mxCell id="491" value="" style="ellipse;whiteSpace=wrap;html=1;aspect=fixed;fontSize=10;strokeColor=#FF0000;" parent="1" vertex="1">
                    <mxGeometry x="-2404.86" y="-862.65" width="6.08" height="6.08" as="geometry"/>
                </mxCell>
                <mxCell id="492" value="&lt;font color=&quot;#ff0000&quot; style=&quot;font-size: 11px;&quot;&gt;affluenza &lt;br&gt;media&lt;/font&gt;" style="text;html=1;align=center;verticalAlign=middle;resizable=0;points=[];autosize=1;strokeColor=none;fillColor=none;fontSize=10;" parent="1" vertex="1">
                    <mxGeometry x="-2468.78" y="-869.0899999999999" width="70" height="40" as="geometry"/>
                </mxCell>
                <mxCell id="493" value="" style="shape=flexArrow;endArrow=classic;html=1;shadow=1;strokeColor=#FF0000;fontColor=#FF0000;fillColor=#FF0000;" parent="1" edge="1">
                    <mxGeometry width="50" height="50" relative="1" as="geometry">
                        <mxPoint x="-2220" y="-900" as="sourcePoint"/>
                        <mxPoint x="-2300" y="-900" as="targetPoint"/>
                    </mxGeometry>
                </mxCell>
            </root>
        </mxGraphModel>
    </diagram>
</mxfile>